# xmcd CD database file
#
# Track frame offsets:
#	182
#	32507
#	67890
#	96350
#	137392
#	159870
#
# Disc length: 2502 seconds
#
# Revision: 0
# Processed by: cddbd v1.4PL0 Copyright (c) Steve Scherf et al.
# Submitted via: CDex 1.50beta9
#
DISCID=3d09c406
DTITLE=Anthony Braxton - Six Compositions: Quartet
DYEAR=1981
DGENRE=Jazz
TTITLE0=Composition No. 40B
TTITLE1=Composition No. 69N
TTITLE2=Composition No. 34
TTITLE3=Composition No. 40A
TTITLE4=Composition No. 40G
TTITLE5=Composition No. 52
EXTD=YEAR: 1981
EXTT0=
EXTT1=
EXTT2=
EXTT3=
EXTT4=
EXTT5=
PLAYORDER=
